<svg version="1.1" id="Layer_1" xmlns="http://www.w3.org/2000/svg" xmlns:xlink="http://www.w3.org/1999/xlink" x="0px" y="0px" width="417.558px" height="198.485px" viewBox="0 0 417.558 198.485" enable-background="new 0 0 417.558 198.485" xml:space="preserve">
<g>
	<path fill="#E81E25" d="M39.704,112.473c2.687,5.056,6.148,9.635,10.222,13.587l7.765-16.807L39.704,112.473z"/>
	<path fill="#E81E25" d="M93.104,32.604c-2.544-0.24-5.135-0.321-7.769-0.199c-27.915,1.289-50.583,23.92-51.915,51.833   c-0.226,4.739,0.16,9.35,1.073,13.768l30.954-5.54L93.104,32.604z"/>
	<path fill="#E81E25" d="M141.879,78.785c-2.646-17.714-13.8-32.644-29.178-40.496l6.98,44.469L141.879,78.785z"/>
	<path fill="#E81E25" d="M126.402,125.587c8.32-8.272,13.986-19.209,15.608-31.427l-19.979,3.576L126.402,125.587z"/>
	<path fill="#E81E25" d="M75.893,105.995l-13.606,29.449c9.587,6.907,17.576,15.8,23.052,26.313l2.28,4.379l0.747-1.523   c5.612-11.44,14.069-21.121,24.329-28.595l-5.588-35.61L75.893,105.995z"/>
	<polygon fill="#E81E25" points="83.649,89.208 104.756,85.43 99.848,54.147  "/>
	<path fill="#FFFFFF" d="M126.402,125.587l-4.371-27.85l19.979-3.576c0.315-2.371,0.479-4.791,0.479-7.248   c0-2.763-0.214-5.475-0.61-8.127l-22.198,3.973l-6.98-44.469c-5.979-3.053-12.596-5.026-19.597-5.686L65.447,92.466l-30.955,5.541   c1.058,5.12,2.828,9.98,5.212,14.466l17.987-3.22l-7.765,16.807c2.628,2.551,5.51,4.843,8.608,6.827   c1.277,0.818,2.526,1.674,3.753,2.557l13.606-29.449l31.214-5.587l5.588,35.611c1.457-1.061,2.95-2.078,4.476-3.049   C120.513,130.845,123.607,128.367,126.402,125.587 M83.649,89.208l16.199-35.06l4.908,31.282L83.649,89.208z"/>
	<path fill="#1D184B" d="M186.046,82.55h-16.405l-2.873,7.415c-0.063,0.124-0.17,0.271-0.324,0.44   c-0.155,0.171-0.387,0.255-0.696,0.255h-0.927c-0.247,0-0.463-0.093-0.649-0.278c-0.185-0.186-0.277-0.401-0.277-0.649   c0-0.154,0.03-0.324,0.092-0.509l11.724-30.076c0.124-0.309,0.286-0.54,0.487-0.696c0.201-0.154,0.487-0.232,0.857-0.232h1.576   c0.371,0,0.656,0.078,0.858,0.232c0.201,0.156,0.363,0.387,0.486,0.696l11.725,30.076c0.061,0.185,0.092,0.355,0.092,0.509   c0,0.248-0.092,0.463-0.278,0.649c-0.185,0.185-0.402,0.278-0.648,0.278h-0.927c-0.31,0-0.541-0.084-0.696-0.255   c-0.154-0.169-0.262-0.316-0.324-0.44L186.046,82.55z M170.753,79.77h14.181l-7.091-18.259L170.753,79.77z"/>
	<path fill="#1D184B" d="M208.151,58.22c2.441,0,4.48,0.272,6.118,0.813c1.637,0.54,2.949,1.344,3.939,2.411   c0.989,1.065,1.699,2.377,2.132,3.939c0.432,1.56,0.664,3.343,0.693,5.352c0.032,1.389,0.048,2.618,0.048,3.684   c0,1.065-0.016,2.294-0.048,3.684c-0.06,2.132-0.3,3.986-0.716,5.561c-0.418,1.576-1.114,2.881-2.086,3.916   c-0.973,1.035-2.263,1.807-3.87,2.317c-1.607,0.509-3.6,0.764-5.978,0.764h-10.102c-0.681,0-1.02-0.339-1.02-1.019V59.287   c0-0.71,0.339-1.067,1.02-1.067H208.151z M218.114,70.965c-0.031-1.699-0.231-3.174-0.602-4.426   c-0.37-1.251-0.957-2.286-1.761-3.105c-0.803-0.817-1.845-1.428-3.128-1.83c-1.281-0.402-2.849-0.602-4.704-0.602h-7.739V87.88   h7.971c1.853,0,3.406-0.186,4.657-0.556c1.252-0.371,2.264-0.95,3.036-1.738s1.336-1.814,1.691-3.081s0.548-2.811,0.579-4.635   c0-0.679,0.008-1.297,0.023-1.854c0.017-0.556,0.025-1.089,0.025-1.598c0-0.511-0.008-1.035-0.025-1.576   C218.122,72.301,218.114,71.676,218.114,70.965"/>
	<path fill="#1D184B" d="M239.524,58.22c2.441,0,4.479,0.272,6.117,0.813c1.638,0.54,2.951,1.344,3.939,2.411   c0.989,1.065,1.699,2.377,2.132,3.939c0.432,1.56,0.664,3.343,0.695,5.352c0.03,1.389,0.046,2.618,0.046,3.684   c0,1.065-0.016,2.294-0.046,3.684c-0.062,2.132-0.301,3.986-0.718,5.561c-0.417,1.576-1.112,2.881-2.086,3.916   c-0.972,1.035-2.263,1.807-3.868,2.317c-1.607,0.509-3.601,0.764-5.979,0.764h-10.103c-0.679,0-1.02-0.339-1.02-1.019V59.287   c0-0.71,0.341-1.067,1.02-1.067H239.524z M249.488,70.965c-0.031-1.699-0.232-3.174-0.602-4.426   c-0.372-1.251-0.959-2.286-1.762-3.105c-0.804-0.817-1.846-1.428-3.128-1.83c-1.282-0.402-2.85-0.602-4.704-0.602h-7.74V87.88   h7.972c1.854,0,3.406-0.186,4.658-0.556c1.25-0.371,2.262-0.95,3.035-1.738c0.771-0.788,1.335-1.814,1.692-3.081   c0.353-1.267,0.548-2.811,0.579-4.635c0-0.679,0.006-1.297,0.023-1.854c0.015-0.556,0.023-1.089,0.023-1.598   c0-0.511-0.008-1.035-0.023-1.576C249.494,72.301,249.488,71.676,249.488,70.965"/>
	<path fill="#1D184B" d="M271.823,58.221c3.245,0,5.832,0.773,7.763,2.317c1.931,1.546,2.896,3.893,2.896,7.044   c0,2.503-0.61,4.489-1.83,5.955c-1.221,1.468-2.943,2.464-5.168,2.989l7.462,12.698c0.092,0.185,0.138,0.356,0.138,0.51   c0,0.247-0.092,0.463-0.278,0.649c-0.184,0.185-0.401,0.278-0.648,0.278h-0.556c-0.526,0-0.905-0.123-1.136-0.371   c-0.232-0.247-0.439-0.541-0.625-0.881l-7.369-12.466h-9.547v12.698c0,0.68-0.355,1.02-1.066,1.02h-0.833   c-0.68,0-1.02-0.34-1.02-1.02V59.288c0-0.711,0.34-1.067,1.02-1.067H271.823z M262.925,74.163h8.667   c5.313,0,7.971-2.193,7.971-6.581c0-4.386-2.658-6.58-7.971-6.58h-8.667V74.163z"/>
	<path fill="#1D184B" d="M309.13,87.88c0.708,0,1.065,0.355,1.065,1.066v0.695c0,0.68-0.357,1.019-1.065,1.019h-18.445   c-0.68,0-1.02-0.339-1.02-1.019V59.287c0-0.71,0.34-1.067,1.02-1.067h18.073c0.711,0,1.066,0.357,1.066,1.067v0.695   c0,0.68-0.355,1.02-1.066,1.02h-16.174v11.817h15.154c0.711,0,1.066,0.354,1.066,1.065v0.695c0,0.68-0.355,1.02-1.066,1.02h-15.154   V87.88H309.13z"/>
	<path fill="#1D184B" d="M326.6,57.757c1.822,0,3.413,0.255,4.773,0.765c1.36,0.51,2.487,1.158,3.383,1.946   c0.896,0.788,1.576,1.662,2.039,2.619c0.464,0.957,0.711,1.884,0.743,2.78c0,0.247-0.078,0.463-0.232,0.649   c-0.155,0.186-0.402,0.278-0.743,0.278h-0.925c-0.157,0-0.349-0.062-0.581-0.186c-0.232-0.122-0.378-0.37-0.439-0.741   c-0.186-1.545-0.997-2.819-2.434-3.823c-1.436-1.003-3.298-1.507-5.584-1.507c-1.143,0-2.194,0.109-3.151,0.325   c-0.957,0.216-1.776,0.556-2.456,1.019c-0.681,0.464-1.213,1.043-1.599,1.739c-0.387,0.695-0.58,1.521-0.58,2.479   c0,0.927,0.178,1.715,0.533,2.364c0.355,0.648,0.92,1.235,1.692,1.76c0.772,0.526,1.746,1.02,2.92,1.484   c1.174,0.463,2.595,0.957,4.263,1.482c1.73,0.556,3.236,1.105,4.518,1.645c1.282,0.541,2.348,1.151,3.199,1.83   c0.849,0.68,1.481,1.468,1.899,2.364c0.416,0.896,0.625,1.978,0.625,3.244c0,2.812-1.034,4.99-3.104,6.534   c-2.069,1.546-4.911,2.318-8.526,2.318c-1.885,0-3.553-0.241-5.005-0.719s-2.681-1.104-3.684-1.877   c-1.005-0.772-1.778-1.66-2.317-2.665c-0.541-1.003-0.828-2.03-0.857-3.081c0-0.247,0.092-0.464,0.277-0.649   c0.185-0.185,0.417-0.278,0.695-0.278h0.928c0.309,0,0.539,0.093,0.695,0.278c0.153,0.185,0.262,0.402,0.324,0.649   c0.092,0.649,0.324,1.306,0.696,1.97c0.37,0.664,0.917,1.258,1.644,1.784c0.726,0.525,1.629,0.957,2.711,1.297   c1.08,0.34,2.378,0.509,3.893,0.509c3.028,0,5.237-0.547,6.626-1.644c1.392-1.096,2.086-2.572,2.086-4.426   c0-0.927-0.201-1.706-0.602-2.34c-0.402-0.633-1.02-1.205-1.854-1.715c-0.834-0.51-1.884-0.996-3.151-1.46   c-1.268-0.463-2.766-0.973-4.495-1.529c-1.669-0.525-3.098-1.058-4.287-1.599c-1.19-0.54-2.178-1.159-2.966-1.853   c-0.788-0.695-1.367-1.498-1.738-2.41c-0.371-0.911-0.556-2-0.556-3.267c0-1.174,0.24-2.271,0.719-3.29   c0.478-1.02,1.166-1.901,2.062-2.642c0.895-0.742,2.008-1.328,3.337-1.761C323.34,57.974,324.87,57.757,326.6,57.757"/>
	<path fill="#1D184B" d="M354.637,57.757c1.822,0,3.413,0.255,4.773,0.765c1.358,0.51,2.487,1.158,3.383,1.946   c0.896,0.788,1.576,1.662,2.038,2.619c0.464,0.957,0.71,1.884,0.742,2.78c0,0.247-0.078,0.463-0.232,0.649   c-0.155,0.186-0.402,0.278-0.741,0.278h-0.927c-0.155,0-0.347-0.062-0.579-0.186c-0.232-0.122-0.378-0.37-0.441-0.741   c-0.185-1.545-0.996-2.819-2.432-3.823c-1.438-1.003-3.299-1.507-5.584-1.507c-1.145,0-2.194,0.109-3.151,0.325   c-0.959,0.216-1.778,0.556-2.457,1.019c-0.68,0.464-1.212,1.043-1.599,1.739c-0.387,0.695-0.579,1.521-0.579,2.479   c0,0.927,0.178,1.715,0.533,2.364c0.355,0.648,0.92,1.235,1.691,1.76c0.773,0.526,1.745,1.02,2.919,1.484   c1.174,0.463,2.595,0.957,4.265,1.482c1.73,0.556,3.235,1.105,4.518,1.645c1.281,0.541,2.347,1.151,3.197,1.83   c0.851,0.68,1.483,1.468,1.9,2.364c0.417,0.896,0.626,1.978,0.626,3.244c0,2.812-1.036,4.99-3.104,6.534   c-2.071,1.546-4.913,2.318-8.528,2.318c-1.884,0-3.552-0.241-5.004-0.719c-1.453-0.479-2.68-1.104-3.684-1.877   c-1.004-0.772-1.777-1.66-2.318-2.665c-0.539-1.003-0.826-2.03-0.857-3.081c0-0.247,0.094-0.464,0.278-0.649   c0.186-0.185,0.418-0.278,0.696-0.278h0.926c0.309,0,0.541,0.093,0.695,0.278c0.155,0.185,0.262,0.402,0.325,0.649   c0.093,0.649,0.325,1.306,0.695,1.97s0.919,1.258,1.645,1.784c0.725,0.525,1.63,0.957,2.712,1.297   c1.08,0.34,2.378,0.509,3.891,0.509c3.028,0,5.237-0.547,6.628-1.644c1.39-1.096,2.086-2.572,2.086-4.426   c0-0.927-0.202-1.706-0.604-2.34c-0.401-0.633-1.019-1.205-1.853-1.715c-0.834-0.51-1.885-0.996-3.152-1.46   c-1.266-0.463-2.764-0.973-4.495-1.529c-1.667-0.525-3.096-1.058-4.285-1.599c-1.191-0.54-2.178-1.159-2.966-1.853   c-0.788-0.695-1.368-1.498-1.738-2.41c-0.372-0.911-0.556-2-0.556-3.267c0-1.174,0.238-2.271,0.717-3.29   c0.48-1.02,1.166-1.901,2.062-2.642c0.897-0.742,2.009-1.328,3.337-1.761C351.377,57.974,352.905,57.757,354.637,57.757"/>
	<path fill="#1D184B" d="M186.555,130.523h-16.08l-2.409,6.163c-0.093,0.248-0.263,0.503-0.51,0.766   c-0.249,0.263-0.68,0.393-1.298,0.393h-1.714c-0.278,0-0.518-0.1-0.718-0.301c-0.203-0.2-0.302-0.441-0.302-0.718   c0-0.154,0.062-0.371,0.185-0.649l11.354-29.242c0.154-0.34,0.386-0.679,0.695-1.019c0.309-0.339,0.772-0.51,1.391-0.51h2.78   c0.618,0,1.082,0.171,1.391,0.51c0.308,0.34,0.54,0.679,0.694,1.019l11.308,29.242c0.123,0.278,0.186,0.495,0.186,0.649   c0,0.277-0.101,0.518-0.302,0.718c-0.202,0.201-0.44,0.301-0.718,0.301h-1.715c-0.618,0-1.051-0.13-1.298-0.393   c-0.247-0.263-0.417-0.518-0.509-0.766L186.555,130.523z M172.097,126.352h12.837l-6.395-16.544L172.097,126.352z"/>
	<path fill="#1D184B" d="M223.444,117.964c0.03,1.391,0.046,2.612,0.046,3.661c0,1.051-0.016,2.272-0.046,3.661   c-0.031,1.947-0.372,3.701-1.02,5.26c-0.65,1.561-1.546,2.881-2.687,3.963c-1.143,1.081-2.504,1.908-4.079,2.479   c-1.575,0.572-3.321,0.857-5.237,0.857h-10.889c-0.341,0-0.635-0.123-0.882-0.371c-0.247-0.246-0.37-0.54-0.37-0.881v-29.936   c0-0.34,0.123-0.632,0.37-0.88s0.541-0.371,0.882-0.371h10.611c1.917,0,3.685,0.286,5.306,0.857   c1.623,0.572,3.02,1.399,4.194,2.479c1.174,1.082,2.094,2.403,2.758,3.962C223.065,114.265,223.414,116.018,223.444,117.964    M219.042,118.196c-0.031-1.112-0.209-2.185-0.533-3.22c-0.324-1.036-0.842-1.954-1.552-2.758c-0.711-0.803-1.639-1.444-2.78-1.923   c-1.145-0.479-2.549-0.718-4.218-0.718h-7.275v24.097h7.506c1.67,0,3.066-0.238,4.194-0.718c1.129-0.478,2.032-1.12,2.712-1.923   c0.68-0.803,1.165-1.722,1.459-2.757c0.295-1.035,0.456-2.109,0.487-3.221c0-0.679,0.007-1.29,0.023-1.83   c0.015-0.541,0.023-1.067,0.023-1.576c0-0.51-0.008-1.036-0.023-1.576C219.048,119.533,219.042,118.907,219.042,118.196"/>
	<path fill="#1D184B" d="M249.164,106.564c0.092-0.248,0.262-0.502,0.51-0.765c0.247-0.262,0.679-0.394,1.298-0.394h1.713   c0.278,0,0.519,0.101,0.719,0.301c0.201,0.202,0.301,0.441,0.301,0.718c0,0.156-0.031,0.309-0.092,0.464l-10.01,29.103   c-0.186,0.556-0.486,1.004-0.904,1.344c-0.416,0.34-0.934,0.509-1.553,0.509h-1.854c-0.618,0-1.128-0.169-1.529-0.509   c-0.401-0.34-0.694-0.788-0.88-1.344l-10.055-29.103c-0.063-0.155-0.094-0.308-0.094-0.464c0-0.277,0.1-0.516,0.303-0.718   c0.2-0.2,0.439-0.301,0.716-0.301h1.716c0.617,0,1.049,0.132,1.298,0.394c0.246,0.263,0.416,0.517,0.509,0.765l8.944,26.646   L249.164,106.564z"/>
	<path fill="#1D184B" d="M260.472,137.845c-0.341,0-0.635-0.123-0.882-0.371c-0.246-0.246-0.37-0.54-0.37-0.88v-29.937   c0-0.34,0.124-0.632,0.37-0.88c0.247-0.247,0.541-0.371,0.882-0.371h1.899c0.339,0,0.634,0.124,0.88,0.371   c0.247,0.248,0.372,0.54,0.372,0.88v29.937c0,0.34-0.125,0.634-0.372,0.88c-0.246,0.248-0.541,0.371-0.88,0.371H260.472z"/>
	<path fill="#1D184B" d="M281.557,104.942c1.883,0,3.544,0.294,4.981,0.881c1.436,0.587,2.657,1.305,3.662,2.154   c1.003,0.851,1.768,1.762,2.294,2.735c0.524,0.973,0.803,1.846,0.834,2.618c0.029,0.278-0.063,0.518-0.278,0.719   c-0.217,0.201-0.464,0.301-0.742,0.301h-1.899c-0.341,0-0.611-0.062-0.811-0.186c-0.203-0.122-0.412-0.401-0.627-0.834   c-0.155-0.308-0.41-0.702-0.765-1.181s-0.834-0.942-1.436-1.391c-0.603-0.448-1.337-0.834-2.202-1.158   c-0.865-0.325-1.868-0.487-3.011-0.487c-0.865,0-1.692,0.1-2.48,0.301s-1.491,0.503-2.109,0.904   c-0.619,0.402-1.112,0.904-1.482,1.506c-0.371,0.602-0.555,1.306-0.555,2.109s0.177,1.483,0.532,2.038   c0.354,0.557,0.926,1.059,1.714,1.507c0.788,0.448,1.784,0.857,2.99,1.228c1.204,0.371,2.671,0.788,4.401,1.251   c1.761,0.464,3.252,0.973,4.472,1.529c1.221,0.557,2.217,1.182,2.99,1.877c0.772,0.695,1.336,1.499,1.691,2.41   c0.355,0.912,0.533,1.939,0.533,3.081c0,1.391-0.301,2.666-0.903,3.824c-0.602,1.158-1.444,2.155-2.526,2.989   s-2.387,1.483-3.916,1.946c-1.53,0.464-3.237,0.696-5.121,0.696c-1.792,0-3.445-0.263-4.958-0.788   c-1.515-0.525-2.813-1.205-3.893-2.039c-1.082-0.834-1.939-1.761-2.572-2.781c-0.634-1.019-0.966-2.023-0.997-3.012   c0-0.278,0.1-0.518,0.303-0.719c0.2-0.2,0.439-0.301,0.717-0.301h1.901c0.308,0,0.579,0.063,0.811,0.185   c0.232,0.125,0.439,0.402,0.625,0.835s0.47,0.904,0.856,1.414c0.387,0.508,0.905,0.988,1.553,1.436   c0.65,0.448,1.438,0.827,2.363,1.135c0.928,0.31,2.023,0.464,3.291,0.464c1.081,0,2.109-0.123,3.083-0.371   c0.972-0.247,1.831-0.603,2.57-1.066c0.742-0.464,1.329-1.019,1.762-1.668s0.649-1.374,0.649-2.179c0-0.802-0.248-1.49-0.741-2.061   c-0.495-0.572-1.206-1.09-2.132-1.553c-0.927-0.464-2.062-0.888-3.406-1.275c-1.345-0.385-2.867-0.795-4.565-1.227   c-1.545-0.401-2.859-0.888-3.94-1.46c-1.082-0.571-1.962-1.229-2.641-1.969c-0.679-0.742-1.166-1.56-1.459-2.457   c-0.294-0.895-0.44-1.869-0.44-2.919c0-1.143,0.231-2.255,0.695-3.337c0.462-1.081,1.15-2.039,2.061-2.874   c0.911-0.833,2.054-1.505,3.429-2.015C278.087,105.197,279.703,104.942,281.557,104.942"/>
	<path fill="#1D184B" d="M299.026,117.501c0.032-1.73,0.332-3.36,0.905-4.889c0.57-1.529,1.396-2.858,2.479-3.986   c1.082-1.127,2.409-2.023,3.984-2.687c1.576-0.664,3.384-0.997,5.423-0.997s3.847,0.333,5.423,0.997   c1.575,0.664,2.903,1.56,3.985,2.687c1.08,1.128,1.908,2.457,2.478,3.986c0.573,1.529,0.874,3.159,0.905,4.889   c0.092,2.75,0.092,5.499,0,8.249c-0.063,1.73-0.379,3.359-0.951,4.889c-0.572,1.53-1.398,2.865-2.478,4.009   c-1.082,1.143-2.403,2.038-3.962,2.687c-1.561,0.649-3.361,0.974-5.4,0.974s-3.839-0.325-5.398-0.974   c-1.561-0.649-2.881-1.544-3.964-2.687c-1.08-1.144-1.907-2.479-2.478-4.009c-0.572-1.53-0.888-3.159-0.951-4.889   C298.934,123,298.934,120.251,299.026,117.501 M320.205,117.733c-0.062-1.453-0.301-2.719-0.719-3.8   c-0.416-1.081-0.995-1.977-1.737-2.688c-0.741-0.711-1.615-1.244-2.618-1.599c-1.005-0.354-2.108-0.533-3.314-0.533   c-1.204,0-2.309,0.179-3.314,0.533c-1.003,0.355-1.877,0.888-2.618,1.599c-0.741,0.711-1.327,1.607-1.76,2.688   s-0.665,2.347-0.696,3.8c-0.062,1.39-0.092,2.688-0.092,3.892c0,1.206,0.03,2.503,0.092,3.893c0.031,1.452,0.263,2.719,0.696,3.8   c0.433,1.082,1.019,1.978,1.76,2.687c0.741,0.712,1.615,1.245,2.618,1.6c1.005,0.355,2.11,0.533,3.314,0.533   c1.206,0,2.309-0.178,3.314-0.533c1.003-0.355,1.877-0.888,2.618-1.6c0.742-0.709,1.321-1.604,1.737-2.687   c0.418-1.081,0.657-2.348,0.719-3.8c0.061-1.39,0.092-2.687,0.092-3.893C320.297,120.421,320.266,119.123,320.205,117.733"/>
	<path fill="#1D184B" d="M343.839,105.406c1.513,0,2.942,0.185,4.286,0.556c1.344,0.371,2.526,0.942,3.546,1.714   c1.02,0.773,1.831,1.761,2.433,2.967c0.602,1.204,0.904,2.656,0.904,4.356c0,2.502-0.627,4.495-1.878,5.977   c-1.25,1.484-2.849,2.534-4.796,3.151l6.998,12.188c0.092,0.186,0.138,0.356,0.138,0.51c0,0.278-0.1,0.518-0.301,0.719   c-0.201,0.201-0.44,0.301-0.719,0.301h-1.991c-0.619,0-1.074-0.155-1.367-0.464c-0.295-0.308-0.503-0.57-0.627-0.788l-6.718-11.817   h-7.972v11.817c0,0.341-0.124,0.635-0.37,0.881c-0.248,0.248-0.541,0.371-0.881,0.371h-1.9c-0.341,0-0.633-0.123-0.88-0.371   c-0.248-0.246-0.372-0.54-0.372-0.881v-29.936c0-0.34,0.124-0.633,0.372-0.88c0.247-0.248,0.539-0.371,0.88-0.371H343.839z    M335.775,120.606h7.832c2.225,0,3.946-0.44,5.168-1.321c1.22-0.88,1.83-2.309,1.83-4.286c0-1.977-0.61-3.375-1.83-4.194   c-1.222-0.819-2.943-1.228-5.168-1.228h-7.832V120.606z"/>
	<path fill="#1D184B" d="M371.505,104.942c1.883,0,3.544,0.294,4.981,0.881c1.436,0.587,2.657,1.305,3.662,2.154   c1.003,0.851,1.768,1.762,2.294,2.735c0.525,0.973,0.803,1.846,0.834,2.618c0.03,0.278-0.063,0.518-0.278,0.719   c-0.217,0.201-0.464,0.301-0.742,0.301h-1.899c-0.341,0-0.611-0.062-0.811-0.186c-0.203-0.122-0.412-0.401-0.627-0.834   c-0.154-0.308-0.41-0.702-0.765-1.181s-0.834-0.942-1.436-1.391c-0.603-0.448-1.337-0.834-2.202-1.158   c-0.865-0.325-1.868-0.487-3.011-0.487c-0.865,0-1.692,0.1-2.48,0.301s-1.49,0.503-2.109,0.904   c-0.618,0.402-1.112,0.904-1.482,1.506c-0.371,0.602-0.555,1.306-0.555,2.109s0.177,1.483,0.532,2.038   c0.354,0.557,0.926,1.059,1.714,1.507c0.788,0.448,1.784,0.857,2.99,1.228c1.204,0.371,2.671,0.788,4.401,1.251   c1.762,0.464,3.252,0.973,4.472,1.529c1.221,0.557,2.217,1.182,2.99,1.877c0.772,0.695,1.336,1.499,1.691,2.41   c0.355,0.912,0.533,1.939,0.533,3.081c0,1.391-0.301,2.666-0.903,3.824c-0.602,1.158-1.444,2.155-2.526,2.989   s-2.387,1.483-3.916,1.946c-1.53,0.464-3.237,0.696-5.12,0.696c-1.793,0-3.446-0.263-4.959-0.788   c-1.515-0.525-2.813-1.205-3.893-2.039c-1.082-0.834-1.939-1.761-2.572-2.781c-0.634-1.019-0.966-2.023-0.997-3.012   c0-0.278,0.1-0.518,0.303-0.719c0.2-0.2,0.439-0.301,0.717-0.301h1.901c0.308,0,0.579,0.063,0.811,0.185   c0.232,0.125,0.439,0.402,0.625,0.835s0.47,0.904,0.857,1.414c0.386,0.508,0.904,0.988,1.552,1.436   c0.65,0.448,1.438,0.827,2.364,1.135c0.927,0.31,2.023,0.464,3.291,0.464c1.08,0,2.108-0.123,3.082-0.371   c0.972-0.247,1.831-0.603,2.571-1.066c0.741-0.464,1.328-1.019,1.761-1.668s0.65-1.374,0.65-2.179c0-0.802-0.249-1.49-0.742-2.061   c-0.495-0.572-1.206-1.09-2.132-1.553c-0.927-0.464-2.062-0.888-3.406-1.275c-1.345-0.385-2.867-0.795-4.565-1.227   c-1.545-0.401-2.859-0.888-3.939-1.46c-1.083-0.571-1.963-1.229-2.642-1.969c-0.679-0.742-1.166-1.56-1.459-2.457   c-0.294-0.895-0.44-1.869-0.44-2.919c0-1.143,0.232-2.255,0.695-3.337c0.462-1.081,1.15-2.039,2.061-2.874   c0.911-0.833,2.054-1.505,3.429-2.015C368.036,105.197,369.651,104.942,371.505,104.942"/>
</g>
</svg>