<?xml version="1.0" encoding="utf-8"?>
<!-- Generator: Adobe Illustrator 16.0.0, SVG Export Plug-In . SVG Version: 6.00 Build 0)  -->
<!DOCTYPE svg PUBLIC "-//W3C//DTD SVG 1.1//EN" "http://www.w3.org/Graphics/SVG/1.1/DTD/svg11.dtd">
<svg version="1.1" id="Layer_2" xmlns="http://www.w3.org/2000/svg" xmlns:xlink="http://www.w3.org/1999/xlink" x="0px" y="0px"
	 width="530px" height="207px" viewBox="0 0 530 207" enable-background="new 0 0 530 207" xml:space="preserve">
<g>
	<path fill="#E81E25" d="M94.634,93.772c2.627,4.945,6.013,9.423,9.997,13.289l7.594-16.438L94.634,93.772z"/>
	<path fill="#E81E25" d="M146.86,15.658c-2.489-0.234-5.022-0.313-7.598-0.194c-27.302,1.261-49.472,23.395-50.775,50.695
		c-0.221,4.635,0.156,9.145,1.049,13.465l30.275-5.418L146.86,15.658z"/>
	<path fill="#E81E25" d="M194.565,60.825c-2.588-17.324-13.499-31.926-28.537-39.606l6.825,43.493L194.565,60.825z"/>
	<path fill="#E81E25" d="M179.428,106.6c8.138-8.092,13.679-18.788,15.266-30.737l-19.541,3.498L179.428,106.6z"/>
	<path fill="#E81E25" d="M130.028,87.438L116.72,116.24c9.377,6.755,17.191,15.453,22.545,25.735l2.231,4.282l0.731-1.489
		c5.489-11.189,13.759-20.658,23.794-27.967l-5.465-34.829L130.028,87.438z"/>
	<polygon fill="#E81E25" points="137.613,71.019 158.257,67.324 153.457,36.729 	"/>
	<path fill="#FFFFFF" d="M179.428,106.599l-4.275-27.238l19.541-3.498c0.309-2.319,0.469-4.685,0.469-7.089
		c0-2.702-0.21-5.355-0.598-7.949l-21.711,3.887l-6.825-43.492c-5.849-2.987-12.32-4.916-19.168-5.561l-27.049,58.547l-30.275,5.419
		c1.035,5.008,2.765,9.761,5.098,14.148l17.591-3.148l-7.594,16.438c2.571,2.496,5.389,4.737,8.419,6.677
		c1.249,0.801,2.471,1.637,3.67,2.501l13.307-28.802l30.529-5.465l5.465,34.829c1.426-1.038,2.886-2.032,4.378-2.981
		C173.667,111.742,176.693,109.317,179.428,106.599 M137.613,71.019l15.844-34.29l4.801,30.596L137.613,71.019z"/>
	<path fill="#1D184B" d="M237.763,64.508h-16.045l-2.81,7.252c-0.061,0.121-0.166,0.265-0.316,0.431
		c-0.152,0.166-0.379,0.249-0.68,0.249h-0.907c-0.242,0-0.453-0.091-0.635-0.272c-0.182-0.182-0.271-0.393-0.271-0.635
		c0-0.151,0.03-0.318,0.09-0.499l11.467-29.415c0.121-0.303,0.28-0.528,0.478-0.68c0.195-0.151,0.476-0.228,0.837-0.228h1.542
		c0.363,0,0.642,0.077,0.838,0.228c0.197,0.152,0.355,0.377,0.476,0.68l11.467,29.415c0.061,0.181,0.091,0.348,0.091,0.499
		c0,0.242-0.091,0.453-0.272,0.635c-0.181,0.181-0.393,0.272-0.634,0.272h-0.907c-0.302,0-0.528-0.083-0.68-0.249
		c-0.15-0.167-0.256-0.311-0.317-0.431L237.763,64.508z M222.805,61.788h13.87l-6.935-17.857L222.805,61.788z"/>
	<path fill="#1D184B" d="M259.381,40.711c2.387,0,4.381,0.266,5.984,0.795c1.601,0.528,2.884,1.314,3.853,2.357
		c0.967,1.042,1.662,2.326,2.084,3.852c0.423,1.526,0.65,3.271,0.679,5.235c0.03,1.359,0.047,2.561,0.047,3.603
		s-0.017,2.244-0.047,3.604c-0.059,2.086-0.294,3.898-0.701,5.439c-0.408,1.542-1.09,2.817-2.041,3.831
		c-0.952,1.012-2.213,1.766-3.785,2.265c-1.571,0.499-3.521,0.749-5.847,0.749h-9.879c-0.666,0-0.999-0.332-0.999-0.998V41.755
		c0-0.695,0.333-1.043,0.999-1.043H259.381z M269.126,53.177c-0.031-1.662-0.228-3.104-0.589-4.328
		c-0.361-1.225-0.936-2.236-1.723-3.038c-0.784-0.799-1.805-1.396-3.06-1.79c-1.252-0.393-2.785-0.589-4.6-0.589h-7.567V69.72h7.794
		c1.813,0,3.331-0.181,4.555-0.543c1.225-0.362,2.214-0.93,2.97-1.701c0.754-0.771,1.306-1.774,1.653-3.013
		c0.347-1.239,0.535-2.75,0.566-4.532c0-0.664,0.007-1.269,0.022-1.813c0.016-0.543,0.024-1.065,0.024-1.564
		s-0.008-1.012-0.024-1.541C269.133,54.484,269.126,53.872,269.126,53.177"/>
	<path fill="#1D184B" d="M290.066,40.711c2.387,0,4.38,0.266,5.983,0.795c1.602,0.528,2.885,1.314,3.852,2.357
		c0.967,1.042,1.662,2.326,2.085,3.852c0.423,1.526,0.649,3.271,0.68,5.235c0.029,1.359,0.044,2.561,0.044,3.603
		s-0.016,2.244-0.044,3.604c-0.061,2.086-0.294,3.898-0.703,5.439c-0.406,1.542-1.087,2.817-2.04,3.831
		c-0.951,1.012-2.213,1.766-3.783,2.265c-1.571,0.499-3.521,0.749-5.847,0.749h-9.881c-0.664,0-0.998-0.332-0.998-0.998V41.755
		c0-0.695,0.333-1.043,0.998-1.043H290.066z M299.811,53.177c-0.031-1.662-0.227-3.104-0.589-4.328
		c-0.363-1.225-0.938-2.236-1.723-3.038c-0.786-0.799-1.806-1.396-3.059-1.79c-1.255-0.393-2.788-0.589-4.601-0.589h-7.57V69.72
		h7.796c1.813,0,3.332-0.181,4.555-0.543c1.223-0.362,2.212-0.93,2.969-1.701c0.754-0.771,1.306-1.774,1.655-3.013
		c0.346-1.239,0.536-2.75,0.566-4.532c0-0.664,0.006-1.269,0.023-1.813c0.014-0.543,0.021-1.065,0.021-1.564
		s-0.007-1.012-0.021-1.541C299.817,54.484,299.811,53.872,299.811,53.177"/>
	<path fill="#1D184B" d="M321.655,40.712c3.174,0,5.704,0.756,7.592,2.266c1.889,1.513,2.833,3.809,2.833,6.891
		c0,2.447-0.597,4.389-1.79,5.824c-1.193,1.436-2.877,2.41-5.054,2.923l7.298,12.418c0.09,0.182,0.134,0.348,0.134,0.5
		c0,0.242-0.09,0.453-0.271,0.634c-0.181,0.181-0.393,0.271-0.634,0.271h-0.544c-0.516,0-0.885-0.12-1.111-0.362
		c-0.227-0.241-0.43-0.528-0.611-0.861l-7.207-12.192h-9.338v12.419c0,0.665-0.347,0.997-1.042,0.997h-0.815
		c-0.665,0-0.998-0.332-0.998-0.997V41.755c0-0.695,0.333-1.043,0.998-1.043H321.655z M312.953,56.304h8.477
		c5.196,0,7.796-2.145,7.796-6.435c0-4.291-2.6-6.437-7.796-6.437h-8.477V56.304z"/>
	<path fill="#1D184B" d="M358.143,69.72c0.693,0,1.042,0.348,1.042,1.043v0.679c0,0.666-0.349,0.998-1.042,0.998h-18.041
		c-0.664,0-0.997-0.332-0.997-0.998V41.755c0-0.695,0.333-1.043,0.997-1.043h17.677c0.694,0,1.042,0.349,1.042,1.043v0.68
		c0,0.665-0.348,0.997-1.042,0.997H341.96V54.99h14.821c0.695,0,1.042,0.347,1.042,1.043v0.679c0,0.666-0.347,0.998-1.042,0.998
		H341.96V69.72H358.143z"/>
	<path fill="#1D184B" d="M375.229,40.259c1.783,0,3.338,0.25,4.668,0.749c1.33,0.498,2.433,1.133,3.308,1.903
		c0.877,0.771,1.541,1.625,1.995,2.561c0.455,0.937,0.695,1.844,0.726,2.72c0,0.242-0.076,0.453-0.227,0.634
		s-0.392,0.271-0.726,0.271h-0.905c-0.153,0-0.341-0.06-0.568-0.182c-0.227-0.119-0.37-0.361-0.43-0.724
		c-0.181-1.51-0.975-2.758-2.38-3.739c-1.406-0.981-3.225-1.473-5.462-1.473c-1.117,0-2.145,0.106-3.081,0.317
		c-0.937,0.211-1.738,0.543-2.401,0.996c-0.667,0.454-1.188,1.02-1.564,1.701c-0.38,0.679-0.568,1.487-0.568,2.424
		c0,0.906,0.173,1.677,0.522,2.312c0.347,0.634,0.897,1.208,1.654,1.722c0.754,0.515,1.707,0.997,2.856,1.45
		c1.147,0.453,2.538,0.937,4.169,1.45c1.692,0.545,3.166,1.081,4.418,1.609c1.256,0.529,2.298,1.126,3.129,1.79
		c0.83,0.665,1.449,1.436,1.858,2.312c0.407,0.877,0.611,1.934,0.611,3.173c0,2.75-1.012,4.88-3.037,6.391
		c-2.023,1.512-4.803,2.267-8.338,2.267c-1.844,0-3.475-0.235-4.896-0.703c-1.42-0.469-2.622-1.081-3.603-1.835
		c-0.983-0.756-1.738-1.625-2.267-2.607c-0.528-0.981-0.808-1.986-0.838-3.014c0-0.242,0.089-0.454,0.271-0.635
		c0.181-0.181,0.407-0.272,0.678-0.272h0.909c0.301,0,0.527,0.091,0.68,0.272c0.15,0.181,0.255,0.393,0.318,0.635
		c0.09,0.635,0.316,1.277,0.68,1.926c0.362,0.65,0.897,1.231,1.608,1.745c0.709,0.514,1.593,0.937,2.651,1.269
		c1.057,0.333,2.326,0.499,3.808,0.499c2.961,0,5.121-0.536,6.48-1.608c1.361-1.072,2.039-2.516,2.039-4.329
		c0-0.906-0.196-1.668-0.587-2.289c-0.394-0.619-0.998-1.178-1.813-1.677c-0.816-0.499-1.845-0.974-3.083-1.428
		c-1.241-0.454-2.706-0.951-4.396-1.496c-1.633-0.512-3.03-1.034-4.194-1.563c-1.162-0.528-2.128-1.134-2.899-1.813
		c-0.77-0.68-1.336-1.465-1.702-2.356c-0.361-0.892-0.543-1.957-0.543-3.196c0-1.147,0.235-2.22,0.703-3.217
		c0.469-0.998,1.141-1.859,2.018-2.584c0.874-0.725,1.963-1.3,3.262-1.723S373.537,40.259,375.229,40.259"/>
	<path fill="#1D184B" d="M402.65,40.259c1.783,0,3.338,0.25,4.668,0.749c1.329,0.498,2.433,1.133,3.31,1.903
		c0.874,0.771,1.539,1.625,1.992,2.561c0.455,0.937,0.695,1.844,0.726,2.72c0,0.242-0.076,0.453-0.227,0.634
		c-0.152,0.182-0.392,0.271-0.723,0.271h-0.909c-0.15,0-0.339-0.06-0.566-0.182c-0.227-0.119-0.37-0.361-0.43-0.724
		c-0.183-1.51-0.976-2.758-2.38-3.739c-1.406-0.981-3.226-1.473-5.461-1.473c-1.12,0-2.145,0.106-3.082,0.317
		c-0.938,0.211-1.74,0.543-2.403,0.996c-0.665,0.454-1.187,1.02-1.563,1.701c-0.379,0.679-0.566,1.487-0.566,2.424
		c0,0.906,0.173,1.677,0.522,2.312c0.347,0.634,0.899,1.208,1.652,1.722c0.757,0.515,1.707,0.997,2.856,1.45
		c1.147,0.453,2.538,0.937,4.171,1.45c1.692,0.545,3.164,1.081,4.418,1.609c1.254,0.529,2.296,1.126,3.127,1.79
		c0.832,0.665,1.452,1.436,1.858,2.312c0.408,0.877,0.612,1.934,0.612,3.173c0,2.75-1.012,4.88-3.037,6.391
		c-2.025,1.512-4.805,2.267-8.34,2.267c-1.844,0-3.475-0.235-4.896-0.703c-1.42-0.469-2.619-1.081-3.602-1.835
		c-0.982-0.756-1.738-1.625-2.268-2.607c-0.527-0.981-0.807-1.986-0.838-3.014c0-0.242,0.092-0.454,0.271-0.635
		c0.183-0.181,0.41-0.272,0.68-0.272h0.907c0.303,0,0.528,0.091,0.682,0.272c0.149,0.181,0.255,0.393,0.316,0.635
		c0.09,0.635,0.319,1.277,0.68,1.926c0.362,0.65,0.9,1.231,1.61,1.745c0.708,0.514,1.593,0.937,2.652,1.269
		c1.057,0.333,2.326,0.499,3.806,0.499c2.961,0,5.122-0.536,6.482-1.608c1.359-1.072,2.039-2.516,2.039-4.329
		c0-0.906-0.196-1.668-0.589-2.289c-0.394-0.619-0.998-1.178-1.813-1.677c-0.816-0.499-1.844-0.974-3.083-1.428
		c-1.238-0.454-2.704-0.951-4.396-1.496c-1.629-0.512-3.029-1.034-4.191-1.563c-1.165-0.528-2.13-1.134-2.9-1.813
		c-0.772-0.68-1.338-1.465-1.701-2.356c-0.364-0.892-0.544-1.957-0.544-3.196c0-1.147,0.233-2.22,0.701-3.217
		c0.471-0.998,1.142-1.859,2.018-2.584c0.877-0.725,1.964-1.3,3.264-1.723S400.956,40.259,402.65,40.259"/>
	<path fill="#1D184B" d="M238.261,111.427h-15.728l-2.356,6.028c-0.091,0.243-0.257,0.492-0.499,0.749
		c-0.243,0.257-0.665,0.385-1.268,0.385h-1.678c-0.271,0-0.505-0.099-0.702-0.295c-0.197-0.196-0.294-0.431-0.294-0.703
		c0-0.151,0.06-0.364,0.181-0.635l11.104-28.6c0.15-0.332,0.377-0.664,0.68-0.996c0.303-0.332,0.755-0.499,1.36-0.499h2.719
		c0.605,0,1.058,0.167,1.359,0.499c0.302,0.332,0.529,0.664,0.681,0.996l11.059,28.6c0.12,0.271,0.182,0.483,0.182,0.635
		c0,0.271-0.099,0.507-0.294,0.703c-0.198,0.196-0.431,0.295-0.704,0.295h-1.677c-0.605,0-1.028-0.128-1.269-0.385
		c-0.242-0.257-0.407-0.506-0.499-0.749L238.261,111.427z M224.12,107.347h12.554l-6.253-16.181L224.12,107.347z"/>
	<path fill="#1D184B" d="M274.34,99.144c0.028,1.36,0.044,2.555,0.044,3.581c0,1.028-0.017,2.222-0.044,3.581
		c-0.031,1.904-0.365,3.619-0.999,5.145c-0.635,1.526-1.512,2.818-2.628,3.876c-1.118,1.057-2.448,1.866-3.989,2.423
		c-1.541,0.56-3.248,0.839-5.122,0.839h-10.651c-0.333,0-0.62-0.121-0.861-0.363c-0.241-0.241-0.361-0.528-0.361-0.861V88.084
		c0-0.332,0.12-0.618,0.361-0.861c0.242-0.242,0.529-0.362,0.861-0.362h10.379c1.874,0,3.604,0.28,5.19,0.838
		c1.587,0.56,2.953,1.368,4.102,2.425c1.148,1.059,2.047,2.349,2.697,3.875C273.969,95.525,274.309,97.241,274.34,99.144
		 M270.033,99.37c-0.03-1.087-0.204-2.137-0.521-3.149c-0.317-1.012-0.824-1.911-1.519-2.697c-0.695-0.786-1.602-1.412-2.719-1.881
		c-1.119-0.469-2.493-0.702-4.126-0.702h-7.115v23.568h7.342c1.633,0,2.999-0.234,4.102-0.702c1.104-0.469,1.987-1.096,2.652-1.882
		c0.664-0.784,1.139-1.684,1.426-2.695c0.289-1.012,0.446-2.064,0.477-3.15c0-0.665,0.007-1.262,0.023-1.79
		c0.014-0.529,0.022-1.044,0.022-1.542c0-0.499-0.008-1.013-0.022-1.541C270.04,100.678,270.033,100.066,270.033,99.37"/>
	<path fill="#1D184B" d="M299.494,87.995c0.09-0.242,0.255-0.491,0.499-0.748c0.241-0.256,0.665-0.385,1.269-0.385h1.676
		c0.272,0,0.506,0.097,0.703,0.294c0.196,0.197,0.294,0.431,0.294,0.703c0,0.151-0.031,0.302-0.09,0.454l-9.791,28.463
		c-0.181,0.544-0.477,0.981-0.884,1.314s-0.914,0.499-1.519,0.499h-1.813c-0.605,0-1.104-0.166-1.496-0.499s-0.679-0.771-0.86-1.314
		l-9.835-28.463c-0.062-0.152-0.092-0.302-0.092-0.454c0-0.272,0.098-0.506,0.296-0.703c0.196-0.197,0.43-0.294,0.702-0.294h1.677
		c0.604,0,1.027,0.129,1.27,0.385c0.242,0.257,0.407,0.506,0.5,0.748l8.748,26.062L299.494,87.995z"/>
	<path fill="#1D184B" d="M310.553,118.588c-0.333,0-0.621-0.12-0.862-0.362c-0.241-0.242-0.362-0.528-0.362-0.862V88.085
		c0-0.332,0.121-0.619,0.362-0.861c0.241-0.242,0.529-0.362,0.862-0.362h1.858c0.331,0,0.618,0.12,0.86,0.362
		c0.241,0.243,0.364,0.529,0.364,0.861v29.279c0,0.333-0.123,0.62-0.364,0.862c-0.242,0.242-0.529,0.362-0.86,0.362H310.553z"/>
	<path fill="#1D184B" d="M331.175,86.408c1.841,0,3.467,0.288,4.873,0.861c1.405,0.574,2.598,1.277,3.581,2.107
		c0.981,0.832,1.729,1.723,2.245,2.674c0.513,0.953,0.784,1.806,0.815,2.561c0.029,0.272-0.061,0.507-0.272,0.703
		c-0.212,0.196-0.454,0.294-0.726,0.294h-1.858c-0.333,0-0.596-0.06-0.792-0.181c-0.198-0.12-0.403-0.392-0.614-0.816
		c-0.15-0.301-0.4-0.687-0.747-1.155c-0.349-0.469-0.816-0.921-1.405-1.36c-0.59-0.438-1.307-0.816-2.153-1.133
		c-0.846-0.318-1.828-0.477-2.946-0.477c-0.846,0-1.655,0.099-2.425,0.294c-0.771,0.198-1.458,0.491-2.063,0.884
		c-0.605,0.394-1.088,0.884-1.449,1.474c-0.364,0.589-0.544,1.276-0.544,2.062c0,0.786,0.174,1.45,0.521,1.993
		c0.346,0.545,0.906,1.037,1.676,1.474c0.771,0.438,1.746,0.838,2.924,1.201c1.178,0.363,2.613,0.771,4.305,1.224
		c1.723,0.453,3.179,0.951,4.374,1.495c1.193,0.544,2.168,1.156,2.924,1.836c0.755,0.68,1.307,1.465,1.654,2.356
		c0.348,0.893,0.521,1.897,0.521,3.013c0,1.361-0.294,2.607-0.884,3.741c-0.588,1.133-1.412,2.107-2.471,2.922
		c-1.058,0.816-2.333,1.452-3.83,1.904c-1.496,0.453-3.165,0.681-5.008,0.681c-1.754,0-3.37-0.257-4.85-0.771
		c-1.481-0.514-2.75-1.179-3.806-1.995c-1.06-0.814-1.897-1.722-2.517-2.718c-0.62-0.999-0.944-1.979-0.975-2.946
		c0-0.272,0.099-0.506,0.297-0.703c0.195-0.197,0.429-0.293,0.701-0.293h1.859c0.3,0,0.566,0.061,0.793,0.179
		c0.227,0.123,0.43,0.394,0.611,0.817c0.181,0.423,0.46,0.884,0.838,1.382c0.378,0.499,0.885,0.968,1.519,1.406
		c0.635,0.438,1.406,0.808,2.312,1.11c0.906,0.302,1.978,0.453,3.218,0.453c1.058,0,2.063-0.12,3.015-0.362
		c0.951-0.242,1.79-0.59,2.514-1.043c0.725-0.454,1.3-0.999,1.724-1.632c0.422-0.636,0.634-1.344,0.634-2.132
		c0-0.784-0.243-1.457-0.725-2.015c-0.485-0.56-1.18-1.067-2.085-1.519c-0.908-0.454-2.018-0.869-3.332-1.246
		c-1.315-0.378-2.804-0.779-4.465-1.201c-1.511-0.393-2.796-0.869-3.853-1.428c-1.059-0.559-1.919-1.202-2.583-1.926
		c-0.665-0.725-1.142-1.525-1.428-2.402c-0.287-0.876-0.431-1.829-0.431-2.855c0-1.118,0.227-2.205,0.68-3.264
		c0.453-1.057,1.125-1.994,2.015-2.81c0.893-0.815,2.01-1.473,3.355-1.972C327.783,86.657,329.362,86.408,331.175,86.408"/>
	<path fill="#1D184B" d="M348.262,98.691c0.03-1.692,0.325-3.286,0.884-4.782c0.558-1.496,1.366-2.794,2.424-3.898
		c1.059-1.103,2.357-1.979,3.898-2.629c1.541-0.648,3.309-0.974,5.303-0.974c1.995,0,3.761,0.326,5.304,0.974
		c1.541,0.651,2.839,1.526,3.898,2.629c1.057,1.104,1.865,2.402,2.423,3.898c0.56,1.496,0.854,3.089,0.885,4.782
		c0.091,2.689,0.091,5.379,0,8.068c-0.063,1.692-0.37,3.286-0.93,4.782c-0.56,1.495-1.368,2.802-2.425,3.921
		c-1.058,1.118-2.349,1.993-3.875,2.628c-1.526,0.635-3.286,0.952-5.281,0.952c-1.995,0-3.754-0.317-5.28-0.952
		c-1.526-0.635-2.818-1.511-3.876-2.628c-1.057-1.119-1.865-2.426-2.424-3.921c-0.56-1.496-0.868-3.09-0.929-4.782
		C348.171,104.07,348.171,101.38,348.262,98.691 M368.974,98.917c-0.059-1.421-0.293-2.659-0.703-3.716
		c-0.407-1.058-0.973-1.933-1.699-2.629c-0.724-0.695-1.579-1.216-2.56-1.563c-0.982-0.347-2.063-0.521-3.241-0.521
		c-1.178,0-2.26,0.174-3.242,0.521c-0.981,0.348-1.835,0.869-2.56,1.563c-0.725,0.696-1.299,1.572-1.722,2.629
		c-0.423,1.058-0.65,2.295-0.68,3.716c-0.063,1.359-0.09,2.629-0.09,3.807c0,1.179,0.028,2.448,0.09,3.808
		c0.03,1.42,0.257,2.659,0.68,3.717c0.423,1.058,0.997,1.934,1.722,2.627c0.724,0.696,1.578,1.217,2.56,1.565
		c0.982,0.347,2.064,0.521,3.242,0.521c1.179,0,2.259-0.174,3.241-0.521c0.981-0.348,1.835-0.869,2.56-1.565
		c0.726-0.694,1.292-1.569,1.699-2.627c0.41-1.058,0.644-2.296,0.703-3.717c0.061-1.36,0.091-2.628,0.091-3.808
		C369.064,101.546,369.035,100.277,368.974,98.917"/>
	<path fill="#1D184B" d="M392.089,86.862c1.481,0,2.879,0.181,4.194,0.543c1.313,0.363,2.469,0.922,3.468,1.677
		c0.996,0.756,1.79,1.722,2.379,2.901c0.587,1.178,0.884,2.6,0.884,4.26c0,2.448-0.612,4.396-1.837,5.847
		c-1.223,1.45-2.787,2.478-4.689,3.082l6.844,11.92c0.089,0.182,0.133,0.348,0.133,0.499c0,0.271-0.097,0.507-0.293,0.703
		c-0.197,0.196-0.431,0.295-0.703,0.295h-1.947c-0.606,0-1.052-0.152-1.338-0.455c-0.288-0.301-0.492-0.558-0.612-0.771L392,105.806
		h-7.797v11.558c0,0.333-0.12,0.62-0.36,0.862c-0.244,0.242-0.532,0.363-0.864,0.363h-1.856c-0.333,0-0.621-0.121-0.861-0.363
		c-0.242-0.242-0.364-0.528-0.364-0.862V88.085c0-0.333,0.122-0.619,0.364-0.861c0.24-0.241,0.528-0.362,0.861-0.362H392.089z
		 M384.203,101.728h7.661c2.176,0,3.858-0.431,5.053-1.292c1.193-0.861,1.791-2.258,1.791-4.193c0-1.933-0.598-3.3-1.791-4.102
		c-1.195-0.799-2.877-1.201-5.053-1.201h-7.661V101.728z"/>
	<path fill="#1D184B" d="M419.148,86.408c1.842,0,3.466,0.288,4.872,0.861c1.404,0.574,2.598,1.277,3.58,2.107
		c0.983,0.832,1.73,1.723,2.245,2.674c0.514,0.953,0.785,1.806,0.815,2.561c0.029,0.272-0.061,0.507-0.271,0.703
		c-0.212,0.196-0.453,0.294-0.725,0.294h-1.858c-0.334,0-0.597-0.06-0.793-0.181c-0.198-0.12-0.403-0.392-0.614-0.816
		c-0.149-0.301-0.4-0.687-0.747-1.155c-0.348-0.469-0.815-0.921-1.404-1.36c-0.591-0.438-1.309-0.816-2.154-1.133
		c-0.846-0.318-1.827-0.477-2.945-0.477c-0.846,0-1.656,0.099-2.426,0.294c-0.771,0.198-1.457,0.491-2.061,0.884
		c-0.605,0.394-1.088,0.884-1.45,1.474c-0.364,0.589-0.543,1.276-0.543,2.062c0,0.786,0.173,1.45,0.52,1.993
		c0.348,0.545,0.905,1.037,1.676,1.474c0.772,0.438,1.747,0.838,2.925,1.201c1.179,0.363,2.612,0.771,4.305,1.224
		c1.723,0.453,3.182,0.951,4.375,1.495s2.168,1.156,2.923,1.836c0.755,0.68,1.307,1.465,1.654,2.356
		c0.347,0.893,0.52,1.897,0.52,3.013c0,1.361-0.293,2.607-0.882,3.741s-1.412,2.107-2.471,2.922
		c-1.058,0.816-2.334,1.452-3.83,1.904c-1.497,0.453-3.166,0.681-5.007,0.681c-1.753,0-3.37-0.257-4.849-0.771
		c-1.481-0.514-2.752-1.179-3.809-1.995c-1.058-0.814-1.896-1.722-2.515-2.718c-0.619-0.999-0.945-1.979-0.974-2.946
		c0-0.272,0.097-0.506,0.294-0.703s0.431-0.293,0.701-0.293h1.86c0.301,0,0.566,0.061,0.793,0.179
		c0.227,0.123,0.43,0.394,0.611,0.817c0.181,0.423,0.461,0.884,0.838,1.382c0.378,0.499,0.885,0.968,1.519,1.406
		c0.635,0.438,1.406,0.808,2.311,1.11c0.907,0.302,1.98,0.453,3.22,0.453c1.057,0,2.063-0.12,3.014-0.362
		c0.952-0.242,1.791-0.59,2.515-1.043c0.725-0.454,1.299-0.999,1.722-1.632c0.423-0.636,0.636-1.344,0.636-2.132
		c0-0.784-0.242-1.457-0.725-2.015c-0.485-0.56-1.18-1.067-2.085-1.519c-0.907-0.454-2.018-0.869-3.332-1.246
		c-1.315-0.378-2.803-0.779-4.465-1.201c-1.51-0.393-2.795-0.869-3.852-1.428c-1.058-0.559-1.919-1.202-2.584-1.926
		c-0.664-0.725-1.139-1.525-1.427-2.402s-0.43-1.829-0.43-2.855c0-1.118,0.228-2.205,0.68-3.264c0.451-1.057,1.125-1.994,2.015-2.81
		c0.892-0.815,2.01-1.473,3.354-1.972C415.755,86.657,417.335,86.408,419.148,86.408"/>
	<path fill="#1D184B" d="M21.605,190.333c0,0.25-0.091,0.464-0.271,0.646c-0.182,0.181-0.397,0.271-0.645,0.271h-1.392
		c-0.249,0-0.464-0.09-0.645-0.271s-0.271-0.395-0.271-0.646v-7.941l-8.111-13.679c-0.114-0.203-0.17-0.361-0.17-0.473
		c0-0.205,0.074-0.379,0.221-0.526c0.146-0.147,0.322-0.221,0.526-0.221h1.46c0.452,0,0.774,0.09,0.966,0.271
		c0.193,0.181,0.346,0.373,0.458,0.575l6.245,10.794l6.28-10.794c0.112-0.202,0.265-0.394,0.458-0.575
		c0.191-0.181,0.513-0.271,0.967-0.271h1.458c0.204,0,0.379,0.073,0.527,0.221c0.146,0.146,0.22,0.321,0.22,0.526
		c0,0.112-0.057,0.271-0.169,0.473l-8.111,13.679V190.333z"/>
	<path fill="#1D184B" d="M34.603,176.352c0.022-1.267,0.243-2.461,0.663-3.581c0.418-1.12,1.023-2.092,1.815-2.92
		c0.792-0.825,1.765-1.481,2.918-1.968c1.154-0.485,2.478-0.729,3.97-0.729c1.495,0,2.819,0.244,3.972,0.729
		c1.154,0.486,2.126,1.143,2.919,1.968c0.791,0.828,1.396,1.8,1.814,2.92c0.419,1.12,0.64,2.314,0.663,3.581
		c0.068,2.013,0.068,4.027,0,6.041c-0.046,1.267-0.277,2.46-0.695,3.581c-0.419,1.12-1.024,2.099-1.815,2.935
		c-0.793,0.838-1.76,1.494-2.902,1.969c-1.144,0.476-2.461,0.713-3.956,0.713c-1.493,0-2.81-0.238-3.953-0.713
		c-1.144-0.475-2.11-1.131-2.902-1.969c-0.792-0.836-1.396-1.814-1.816-2.935c-0.418-1.121-0.65-2.314-0.695-3.581
		C34.535,180.378,34.535,178.365,34.603,176.352 M50.114,176.521c-0.047-1.062-0.221-1.99-0.527-2.784
		c-0.305-0.79-0.729-1.447-1.273-1.969c-0.542-0.52-1.183-0.91-1.917-1.169c-0.736-0.261-1.544-0.39-2.428-0.39
		c-0.881,0-1.691,0.129-2.426,0.39c-0.736,0.259-1.375,0.649-1.917,1.169c-0.543,0.522-0.974,1.179-1.29,1.969
		c-0.317,0.793-0.487,1.722-0.51,2.784c-0.044,1.019-0.066,1.968-0.066,2.852c0,0.882,0.022,1.833,0.066,2.85
		c0.023,1.063,0.193,1.992,0.51,2.783c0.316,0.792,0.747,1.449,1.29,1.969c0.542,0.521,1.181,0.912,1.917,1.171
		c0.735,0.261,1.545,0.39,2.426,0.39c0.884,0,1.692-0.129,2.428-0.39c0.734-0.259,1.375-0.65,1.917-1.171
		c0.544-0.52,0.968-1.177,1.273-1.969c0.306-0.792,0.48-1.72,0.527-2.783c0.044-1.017,0.067-1.968,0.067-2.85
		C50.181,178.489,50.158,177.539,50.114,176.521"/>
	<path fill="#1D184B" d="M78.147,167.494c0.25,0,0.465,0.09,0.645,0.271s0.271,0.395,0.271,0.646v13.575
		c0,1.402-0.174,2.687-0.527,3.852c-0.35,1.166-0.894,2.178-1.628,3.037c-0.736,0.861-1.679,1.528-2.833,2.003
		c-1.154,0.476-2.534,0.713-4.142,0.713c-1.629,0-3.021-0.238-4.173-0.713c-1.154-0.475-2.1-1.142-2.835-2.003
		c-0.736-0.858-1.272-1.871-1.611-3.037c-0.34-1.165-0.51-2.449-0.51-3.852v-13.575c0-0.25,0.09-0.464,0.271-0.646
		c0.181-0.181,0.396-0.271,0.646-0.271h1.391c0.25,0,0.464,0.09,0.646,0.271c0.18,0.181,0.271,0.395,0.271,0.646v13.744
		c0,2.217,0.521,3.863,1.563,4.939c1.039,1.074,2.488,1.612,4.343,1.612c1.856,0,3.31-0.538,4.362-1.612
		c1.053-1.076,1.579-2.722,1.579-4.939v-13.744c0-0.25,0.091-0.464,0.271-0.646c0.182-0.181,0.396-0.271,0.645-0.271H78.147z"/>
	<path fill="#1D184B" d="M96.543,167.494c1.109,0,2.155,0.135,3.139,0.406c0.984,0.273,1.85,0.69,2.597,1.257
		c0.747,0.565,1.34,1.29,1.781,2.171c0.442,0.882,0.662,1.946,0.662,3.191c0,1.833-0.458,3.29-1.375,4.378
		c-0.916,1.086-2.088,1.855-3.513,2.308l5.126,8.926c0.067,0.135,0.101,0.259,0.101,0.373c0,0.204-0.073,0.379-0.22,0.526
		c-0.148,0.147-0.323,0.221-0.527,0.221h-1.459c-0.453,0-0.787-0.113-1-0.341c-0.216-0.224-0.368-0.416-0.458-0.576l-4.921-8.654
		h-5.837v8.654c0,0.25-0.091,0.464-0.272,0.646s-0.396,0.271-0.645,0.271H88.33c-0.25,0-0.463-0.09-0.645-0.271
		s-0.271-0.396-0.271-0.646v-21.923c0-0.25,0.09-0.464,0.271-0.646s0.395-0.271,0.645-0.271H96.543z M90.638,178.625h5.735
		c1.629,0,2.891-0.322,3.784-0.969c0.895-0.644,1.341-1.69,1.341-3.138c0-1.449-0.447-2.473-1.341-3.073
		c-0.893-0.598-2.155-0.899-3.784-0.899h-5.735V178.625z"/>
	<path fill="#1D184B" d="M136.795,185.888h-11.776l-1.765,4.514c-0.068,0.183-0.192,0.37-0.373,0.561
		c-0.183,0.191-0.499,0.288-0.95,0.288h-1.256c-0.204,0-0.379-0.074-0.526-0.221c-0.148-0.146-0.22-0.322-0.22-0.526
		c0-0.113,0.044-0.272,0.135-0.475l8.316-21.417c0.112-0.249,0.282-0.497,0.509-0.746c0.226-0.25,0.566-0.374,1.018-0.374h2.037
		c0.452,0,0.791,0.124,1.018,0.374c0.226,0.249,0.396,0.497,0.509,0.746l8.282,21.417c0.091,0.203,0.135,0.361,0.135,0.475
		c0,0.204-0.073,0.379-0.22,0.526c-0.147,0.146-0.324,0.221-0.526,0.221h-1.257c-0.453,0-0.77-0.097-0.95-0.288
		c-0.181-0.191-0.306-0.378-0.374-0.561L136.795,185.888z M126.206,182.833h9.401l-4.683-12.117L126.206,182.833z"/>
	<path fill="#1D184B" d="M166.525,176.69c0.023,1.019,0.035,1.913,0.035,2.682s-0.012,1.664-0.035,2.681
		c-0.022,1.427-0.271,2.71-0.747,3.853c-0.475,1.143-1.131,2.109-1.968,2.9c-0.838,0.792-1.833,1.397-2.987,1.816
		c-1.154,0.419-2.433,0.628-3.835,0.628h-7.976c-0.249,0-0.464-0.09-0.645-0.271s-0.271-0.396-0.271-0.646v-21.923
		c0-0.25,0.09-0.464,0.271-0.646c0.181-0.18,0.396-0.271,0.645-0.271h7.772c1.403,0,2.698,0.209,3.885,0.627
		c1.189,0.419,2.212,1.024,3.072,1.815c0.86,0.792,1.533,1.76,2.019,2.902C166.248,173.98,166.503,175.265,166.525,176.69
		 M163.302,176.86c-0.023-0.814-0.153-1.601-0.391-2.359s-0.617-1.431-1.137-2.019c-0.522-0.589-1.2-1.059-2.037-1.409
		s-1.866-0.527-3.088-0.527h-5.328v17.649h5.498c1.222,0,2.246-0.175,3.072-0.526c0.826-0.351,1.487-0.82,1.985-1.408
		c0.498-0.587,0.854-1.261,1.069-2.018c0.215-0.759,0.334-1.546,0.357-2.36c0-0.498,0.005-0.945,0.017-1.341
		c0.011-0.395,0.017-0.78,0.017-1.154c0-0.373-0.006-0.756-0.017-1.153C163.308,177.839,163.302,177.38,163.302,176.86"/>
	<path fill="#1D184B" d="M192.59,176.69c0.023,1.019,0.035,1.913,0.035,2.682s-0.011,1.664-0.035,2.681
		c-0.021,1.427-0.27,2.71-0.746,3.853c-0.475,1.143-1.131,2.109-1.968,2.9c-0.838,0.792-1.833,1.397-2.987,1.816
		c-1.155,0.419-2.432,0.628-3.835,0.628h-7.976c-0.249,0-0.464-0.09-0.646-0.271c-0.181-0.181-0.271-0.396-0.271-0.646v-21.923
		c0-0.25,0.091-0.464,0.271-0.646c0.181-0.18,0.397-0.271,0.646-0.271h7.772c1.402,0,2.698,0.209,3.886,0.627
		c1.188,0.419,2.21,1.024,3.071,1.815c0.86,0.792,1.533,1.76,2.021,2.902C192.313,173.98,192.569,175.265,192.59,176.69
		 M189.367,176.86c-0.023-0.814-0.153-1.601-0.391-2.359s-0.616-1.431-1.136-2.019c-0.522-0.589-1.2-1.059-2.037-1.409
		c-0.838-0.351-1.866-0.527-3.089-0.527h-5.328v17.649h5.499c1.221,0,2.245-0.175,3.071-0.526c0.827-0.351,1.487-0.82,1.985-1.408
		c0.498-0.587,0.854-1.261,1.069-2.018c0.215-0.759,0.334-1.546,0.357-2.36c0-0.498,0.005-0.945,0.017-1.341
		c0.011-0.395,0.017-0.78,0.017-1.154c0-0.373-0.006-0.756-0.017-1.153C189.372,177.839,189.367,177.38,189.367,176.86"/>
	<path fill="#1D184B" d="M209.357,167.494c1.107,0,2.154,0.135,3.139,0.406c0.984,0.273,1.85,0.69,2.597,1.257
		c0.747,0.565,1.341,1.29,1.782,2.171c0.441,0.882,0.661,1.946,0.661,3.191c0,1.833-0.458,3.29-1.374,4.378
		c-0.917,1.086-2.088,1.855-3.513,2.308l5.125,8.926c0.067,0.135,0.101,0.259,0.101,0.373c0,0.204-0.073,0.379-0.22,0.526
		c-0.148,0.147-0.323,0.221-0.527,0.221h-1.459c-0.454,0-0.786-0.113-1.001-0.341c-0.216-0.224-0.369-0.416-0.458-0.576
		l-4.921-8.654h-5.837v8.654c0,0.25-0.091,0.464-0.271,0.646c-0.183,0.181-0.397,0.271-0.646,0.271h-1.391
		c-0.25,0-0.464-0.09-0.646-0.271c-0.182-0.181-0.271-0.396-0.271-0.646v-21.923c0-0.25,0.09-0.464,0.271-0.646
		c0.181-0.181,0.396-0.271,0.646-0.271H209.357z M203.452,178.625h5.735c1.628,0,2.89-0.322,3.784-0.969
		c0.894-0.644,1.341-1.69,1.341-3.138c0-1.449-0.448-2.473-1.341-3.073c-0.894-0.598-2.156-0.899-3.784-0.899h-5.735V178.625z"/>
	<path fill="#1D184B" d="M239.665,188.196c0.249,0,0.463,0.09,0.645,0.272c0.18,0.182,0.271,0.396,0.271,0.644v1.221
		c0,0.25-0.091,0.464-0.271,0.646c-0.181,0.181-0.396,0.271-0.645,0.271h-13.711c-0.25,0-0.464-0.09-0.645-0.271
		s-0.272-0.396-0.272-0.646v-21.923c0-0.25,0.091-0.464,0.272-0.646s0.395-0.271,0.645-0.271h13.44c0.249,0,0.463,0.09,0.645,0.271
		c0.18,0.181,0.271,0.395,0.271,0.646v1.22c0,0.25-0.091,0.464-0.271,0.646c-0.182,0.182-0.396,0.271-0.645,0.271h-11.132v7.162
		h10.386c0.249,0,0.463,0.091,0.645,0.271c0.181,0.181,0.271,0.396,0.271,0.645v1.222c0,0.249-0.089,0.464-0.271,0.644
		c-0.181,0.182-0.396,0.271-0.645,0.271h-10.386v7.434H239.665z"/>
	<path fill="#1D184B" d="M255.141,167.153c1.379,0,2.596,0.216,3.648,0.646c1.052,0.429,1.945,0.956,2.681,1.578
		c0.735,0.623,1.295,1.291,1.68,2.002c0.384,0.714,0.588,1.353,0.611,1.917c0.023,0.204-0.045,0.38-0.204,0.527
		c-0.158,0.147-0.339,0.22-0.542,0.22h-1.392c-0.25,0-0.447-0.044-0.594-0.136c-0.147-0.09-0.3-0.294-0.458-0.611
		c-0.114-0.226-0.301-0.514-0.561-0.865c-0.26-0.351-0.611-0.689-1.052-1.017c-0.441-0.328-0.979-0.611-1.612-0.85
		c-0.634-0.238-1.37-0.356-2.206-0.356c-0.634,0-1.24,0.074-1.816,0.221c-0.577,0.146-1.091,0.368-1.544,0.661
		c-0.453,0.293-0.814,0.662-1.086,1.104c-0.272,0.441-0.408,0.956-0.408,1.543c0,0.59,0.131,1.087,0.39,1.494
		c0.261,0.407,0.68,0.775,1.256,1.104c0.578,0.329,1.307,0.628,2.189,0.899c0.883,0.271,1.957,0.576,3.225,0.916
		c1.29,0.339,2.381,0.713,3.275,1.12c0.893,0.407,1.623,0.865,2.189,1.375c0.564,0.509,0.979,1.098,1.238,1.765
		c0.26,0.667,0.391,1.419,0.391,2.257c0,1.017-0.22,1.951-0.662,2.8c-0.44,0.85-1.058,1.578-1.85,2.189
		c-0.792,0.61-1.748,1.086-2.867,1.424c-1.121,0.341-2.37,0.511-3.75,0.511c-1.313,0-2.523-0.193-3.631-0.579
		c-1.109-0.385-2.06-0.881-2.851-1.492c-0.793-0.612-1.421-1.291-1.884-2.036c-0.464-0.747-0.708-1.481-0.73-2.207
		c0-0.204,0.073-0.379,0.221-0.526c0.147-0.147,0.323-0.22,0.525-0.22h1.393c0.226,0,0.424,0.044,0.594,0.135
		s0.322,0.294,0.458,0.611c0.136,0.317,0.345,0.662,0.628,1.035c0.282,0.373,0.662,0.724,1.136,1.051
		c0.477,0.328,1.053,0.606,1.732,0.832c0.679,0.225,1.482,0.34,2.41,0.34c0.792,0,1.544-0.091,2.257-0.273
		c0.712-0.18,1.34-0.441,1.884-0.779c0.543-0.341,0.973-0.747,1.29-1.223c0.317-0.476,0.476-1.007,0.476-1.595
		s-0.183-1.091-0.544-1.511c-0.361-0.418-0.881-0.798-1.561-1.136c-0.679-0.34-1.511-0.649-2.496-0.934
		c-0.982-0.282-2.098-0.582-3.341-0.899c-1.132-0.293-2.093-0.65-2.886-1.068c-0.792-0.418-1.437-0.9-1.934-1.443
		c-0.498-0.543-0.854-1.141-1.069-1.798c-0.216-0.656-0.323-1.369-0.323-2.139c0-0.836,0.17-1.651,0.51-2.442
		c0.339-0.792,0.843-1.494,1.51-2.105c0.667-0.611,1.505-1.101,2.511-1.475C252.6,167.34,253.782,167.153,255.141,167.153"/>
	<path fill="#1D184B" d="M278.83,167.153c1.379,0,2.597,0.216,3.649,0.646c1.052,0.429,1.945,0.956,2.681,1.578
		c0.735,0.623,1.295,1.291,1.68,2.002c0.384,0.714,0.588,1.353,0.611,1.917c0.023,0.204-0.045,0.38-0.203,0.527
		c-0.16,0.147-0.34,0.22-0.544,0.22h-1.392c-0.249,0-0.446-0.044-0.593-0.136c-0.149-0.09-0.301-0.294-0.458-0.611
		c-0.115-0.226-0.301-0.514-0.56-0.865c-0.262-0.351-0.611-0.689-1.052-1.017c-0.442-0.328-0.979-0.611-1.612-0.85
		c-0.634-0.238-1.369-0.356-2.207-0.356c-0.633,0-1.239,0.074-1.815,0.221c-0.577,0.146-1.092,0.368-1.545,0.661
		c-0.453,0.293-0.814,0.662-1.085,1.104c-0.271,0.441-0.408,0.956-0.408,1.543c0,0.59,0.131,1.087,0.391,1.494
		c0.259,0.407,0.678,0.775,1.256,1.104c0.576,0.329,1.306,0.628,2.188,0.899c0.882,0.271,1.957,0.576,3.225,0.916
		c1.29,0.339,2.381,0.713,3.274,1.12c0.894,0.407,1.623,0.865,2.189,1.375c0.564,0.509,0.979,1.098,1.239,1.765
		c0.259,0.667,0.39,1.419,0.39,2.257c0,1.017-0.221,1.951-0.663,2.8c-0.441,0.85-1.057,1.578-1.849,2.189
		c-0.792,0.61-1.748,1.086-2.867,1.424c-1.121,0.341-2.371,0.511-3.75,0.511c-1.313,0-2.523-0.193-3.632-0.579
		c-1.108-0.385-2.059-0.881-2.851-1.492c-0.792-0.612-1.42-1.291-1.883-2.036c-0.465-0.747-0.708-1.481-0.73-2.207
		c0-0.204,0.073-0.379,0.22-0.526c0.147-0.147,0.324-0.22,0.526-0.22h1.393c0.226,0,0.424,0.044,0.593,0.135
		c0.17,0.09,0.323,0.294,0.459,0.611c0.135,0.317,0.344,0.662,0.627,1.035c0.282,0.373,0.662,0.724,1.138,1.051
		c0.475,0.328,1.052,0.606,1.73,0.832c0.68,0.225,1.482,0.34,2.411,0.34c0.792,0,1.544-0.091,2.256-0.273
		c0.712-0.18,1.341-0.441,1.885-0.779c0.542-0.341,0.972-0.747,1.289-1.223c0.318-0.476,0.476-1.007,0.476-1.595
		s-0.181-1.091-0.543-1.511c-0.362-0.418-0.882-0.798-1.562-1.136c-0.679-0.34-1.51-0.649-2.494-0.934
		c-0.984-0.282-2.1-0.582-3.342-0.899c-1.133-0.293-2.094-0.65-2.886-1.068c-0.792-0.418-1.437-0.9-1.935-1.443
		c-0.498-0.543-0.854-1.141-1.069-1.798c-0.215-0.656-0.322-1.369-0.322-2.139c0-0.836,0.169-1.651,0.509-2.442
		c0.339-0.792,0.843-1.494,1.51-2.105c0.667-0.611,1.504-1.101,2.512-1.475C276.29,167.34,277.472,167.153,278.83,167.153"/>
	<path fill="#E81E25" d="M305.336,176.352c0.022-1.267,0.243-2.461,0.663-3.581c0.417-1.12,1.023-2.092,1.815-2.92
		c0.792-0.825,1.764-1.481,2.918-1.968c1.154-0.485,2.477-0.729,3.971-0.729c1.494,0,2.818,0.244,3.971,0.729
		c1.155,0.486,2.126,1.143,2.919,1.968c0.791,0.828,1.396,1.8,1.814,2.92c0.419,1.12,0.64,2.314,0.663,3.581
		c0.067,2.013,0.067,4.027,0,6.041c-0.046,1.267-0.277,2.46-0.696,3.581c-0.418,1.12-1.024,2.099-1.815,2.935
		c-0.793,0.838-1.759,1.494-2.902,1.969c-1.143,0.476-2.46,0.713-3.955,0.713c-1.494,0-2.811-0.238-3.954-0.713
		c-1.143-0.475-2.11-1.131-2.902-1.969c-0.792-0.836-1.397-1.814-1.815-2.935c-0.419-1.121-0.651-2.314-0.696-3.581
		C305.269,180.378,305.269,178.365,305.336,176.352 M320.846,176.521c-0.046-1.062-0.22-1.99-0.525-2.784
		c-0.306-0.79-0.73-1.447-1.274-1.969c-0.542-0.52-1.182-0.91-1.917-1.169c-0.736-0.261-1.544-0.39-2.427-0.39
		c-0.883,0-1.692,0.129-2.427,0.39c-0.736,0.259-1.375,0.649-1.917,1.169c-0.543,0.522-0.974,1.179-1.29,1.969
		c-0.318,0.793-0.487,1.722-0.509,2.784c-0.046,1.019-0.067,1.968-0.067,2.852c0,0.882,0.021,1.833,0.067,2.85
		c0.022,1.063,0.191,1.992,0.509,2.783c0.316,0.792,0.747,1.449,1.29,1.969c0.542,0.521,1.181,0.912,1.917,1.171
		c0.735,0.261,1.544,0.39,2.427,0.39c0.883,0,1.691-0.129,2.427-0.39c0.735-0.259,1.375-0.65,1.917-1.171
		c0.544-0.52,0.968-1.177,1.274-1.969c0.305-0.792,0.479-1.72,0.525-2.783c0.045-1.017,0.067-1.968,0.067-2.85
		C320.914,178.489,320.892,177.539,320.846,176.521"/>
	<path fill="#E81E25" d="M348.879,167.494c0.25,0,0.466,0.09,0.645,0.271c0.181,0.181,0.271,0.395,0.271,0.646v13.575
		c0,1.402-0.174,2.687-0.526,3.852c-0.349,1.166-0.894,2.178-1.628,3.037c-0.736,0.861-1.68,1.528-2.834,2.003
		c-1.154,0.476-2.534,0.713-4.142,0.713c-1.629,0-3.021-0.238-4.173-0.713c-1.154-0.475-2.1-1.142-2.835-2.003
		c-0.736-0.858-1.272-1.871-1.611-3.037c-0.34-1.165-0.51-2.449-0.51-3.852v-13.575c0-0.25,0.09-0.464,0.271-0.646
		c0.181-0.181,0.395-0.271,0.646-0.271h1.391c0.25,0,0.464,0.09,0.646,0.271s0.271,0.395,0.271,0.646v13.744
		c0,2.217,0.521,3.863,1.563,4.939c1.039,1.074,2.488,1.612,4.343,1.612c1.856,0,3.31-0.538,4.362-1.612
		c1.053-1.076,1.579-2.722,1.579-4.939v-13.744c0-0.25,0.091-0.464,0.271-0.646c0.182-0.181,0.396-0.271,0.646-0.271H348.879z"/>
	<path fill="#E81E25" d="M367.277,167.494c1.108,0,2.155,0.135,3.139,0.406c0.984,0.273,1.85,0.69,2.596,1.257
		c0.747,0.565,1.341,1.29,1.782,2.171c0.441,0.882,0.662,1.946,0.662,3.191c0,1.833-0.459,3.29-1.375,4.378
		c-0.917,1.086-2.087,1.855-3.513,2.308l5.124,8.926c0.067,0.135,0.102,0.259,0.102,0.373c0,0.204-0.074,0.379-0.221,0.526
		c-0.146,0.147-0.322,0.221-0.525,0.221h-1.46c-0.453,0-0.787-0.113-1.001-0.341c-0.215-0.224-0.369-0.416-0.458-0.576l-4.921-8.654
		h-5.838v8.654c0,0.25-0.091,0.464-0.272,0.646c-0.183,0.181-0.396,0.271-0.645,0.271h-1.391c-0.249,0-0.464-0.09-0.645-0.271
		s-0.271-0.396-0.271-0.646v-21.923c0-0.25,0.09-0.464,0.271-0.646s0.396-0.271,0.645-0.271H367.277z M361.371,178.625h5.736
		c1.628,0,2.89-0.322,3.782-0.969c0.896-0.644,1.342-1.69,1.342-3.138c0-1.449-0.446-2.473-1.342-3.073
		c-0.892-0.598-2.154-0.899-3.782-0.899h-5.736V178.625z"/>
	<path fill="#E81E25" d="M407.527,185.888H395.75l-1.764,4.514c-0.068,0.183-0.191,0.37-0.372,0.561
		c-0.183,0.191-0.499,0.288-0.952,0.288h-1.256c-0.204,0-0.378-0.074-0.525-0.221c-0.148-0.146-0.221-0.322-0.221-0.526
		c0-0.113,0.044-0.272,0.135-0.475l8.316-21.417c0.112-0.249,0.281-0.497,0.509-0.746c0.225-0.25,0.566-0.374,1.019-0.374h2.036
		c0.453,0,0.79,0.124,1.019,0.374c0.224,0.249,0.395,0.497,0.507,0.746l8.283,21.417c0.091,0.203,0.135,0.361,0.135,0.475
		c0,0.204-0.072,0.379-0.221,0.526c-0.148,0.146-0.323,0.221-0.525,0.221h-1.256c-0.455,0-0.771-0.097-0.952-0.288
		c-0.181-0.191-0.305-0.378-0.374-0.561L407.527,185.888z M396.938,182.833h9.402l-4.685-12.117L396.938,182.833z"/>
	<path fill="#E81E25" d="M437.257,176.69c0.023,1.019,0.035,1.913,0.035,2.682s-0.012,1.664-0.035,2.681
		c-0.021,1.427-0.271,2.71-0.746,3.853c-0.476,1.143-1.131,2.109-1.969,2.9c-0.838,0.792-1.832,1.397-2.986,1.816
		c-1.155,0.419-2.433,0.628-3.835,0.628h-7.977c-0.249,0-0.464-0.09-0.645-0.271s-0.271-0.396-0.271-0.646v-21.923
		c0-0.25,0.09-0.464,0.271-0.646c0.181-0.18,0.396-0.271,0.645-0.271h7.772c1.403,0,2.698,0.209,3.885,0.627
		c1.19,0.419,2.212,1.024,3.073,1.815c0.859,0.792,1.532,1.76,2.02,2.902C436.981,173.98,437.236,175.265,437.257,176.69
		 M434.034,176.86c-0.023-0.814-0.153-1.601-0.39-2.359c-0.239-0.758-0.617-1.431-1.138-2.019c-0.521-0.589-1.2-1.059-2.036-1.409
		c-0.838-0.351-1.867-0.527-3.089-0.527h-5.328v17.649h5.499c1.222,0,2.246-0.175,3.072-0.526c0.826-0.351,1.486-0.82,1.985-1.408
		c0.497-0.587,0.853-1.261,1.068-2.018c0.216-0.759,0.334-1.546,0.357-2.36c0-0.498,0.005-0.945,0.017-1.341
		c0.012-0.395,0.017-0.78,0.017-1.154c0-0.373-0.005-0.756-0.017-1.153C434.04,177.839,434.034,177.38,434.034,176.86"/>
	<path fill="#E81E25" d="M458.811,168.34c0.067-0.179,0.192-0.367,0.374-0.559c0.181-0.192,0.496-0.288,0.949-0.288h1.256
		c0.204,0,0.379,0.073,0.527,0.221c0.146,0.146,0.219,0.321,0.219,0.525c0,0.114-0.023,0.227-0.068,0.339l-7.331,21.315
		c-0.135,0.407-0.355,0.735-0.66,0.984c-0.306,0.249-0.687,0.373-1.138,0.373h-1.358c-0.453,0-0.826-0.124-1.119-0.373
		c-0.295-0.25-0.51-0.577-0.646-0.984l-7.364-21.315c-0.046-0.112-0.069-0.225-0.069-0.339c0-0.204,0.074-0.378,0.223-0.525
		c0.145-0.147,0.321-0.221,0.525-0.221h1.256c0.451,0,0.769,0.096,0.95,0.288c0.181,0.191,0.305,0.379,0.374,0.559l6.552,19.517
		L458.811,168.34z"/>
	<path fill="#E81E25" d="M469.806,191.25c-0.248,0-0.463-0.09-0.644-0.271c-0.183-0.181-0.271-0.396-0.271-0.646v-21.923
		c0-0.25,0.089-0.464,0.271-0.646c0.181-0.181,0.396-0.271,0.644-0.271h1.391c0.25,0,0.465,0.09,0.647,0.271
		c0.179,0.181,0.271,0.395,0.271,0.646v21.923c0,0.25-0.093,0.464-0.271,0.646c-0.183,0.181-0.397,0.271-0.647,0.271H469.806z"/>
	<path fill="#E81E25" d="M487.965,167.153c1.379,0,2.596,0.216,3.649,0.646c1.052,0.429,1.943,0.956,2.68,1.578
		c0.735,0.623,1.295,1.291,1.681,2.002c0.383,0.714,0.587,1.353,0.61,1.917c0.023,0.204-0.046,0.38-0.202,0.527
		c-0.16,0.147-0.341,0.22-0.545,0.22h-1.392c-0.25,0-0.445-0.044-0.594-0.136c-0.148-0.09-0.3-0.294-0.458-0.611
		c-0.113-0.226-0.301-0.514-0.56-0.865c-0.262-0.351-0.61-0.689-1.052-1.017c-0.442-0.328-0.979-0.611-1.613-0.85
		c-0.634-0.238-1.367-0.356-2.205-0.356c-0.634,0-1.239,0.074-1.815,0.221c-0.578,0.146-1.094,0.368-1.546,0.661
		c-0.453,0.293-0.813,0.662-1.085,1.104c-0.271,0.441-0.408,0.956-0.408,1.543c0,0.59,0.13,1.087,0.392,1.494
		c0.259,0.407,0.679,0.775,1.255,1.104c0.577,0.329,1.307,0.628,2.188,0.899c0.883,0.271,1.958,0.576,3.225,0.916
		c1.289,0.339,2.382,0.713,3.276,1.12c0.892,0.407,1.623,0.865,2.188,1.375c0.564,0.509,0.978,1.098,1.238,1.765
		c0.26,0.667,0.392,1.419,0.392,2.257c0,1.017-0.223,1.951-0.663,2.8c-0.441,0.85-1.057,1.578-1.849,2.189
		c-0.792,0.61-1.75,1.086-2.867,1.424c-1.121,0.341-2.372,0.511-3.752,0.511c-1.313,0-2.523-0.193-3.631-0.579
		c-1.109-0.385-2.059-0.881-2.851-1.492c-0.794-0.612-1.421-1.291-1.885-2.036c-0.464-0.747-0.708-1.481-0.729-2.207
		c0-0.204,0.074-0.379,0.221-0.526c0.146-0.147,0.322-0.22,0.525-0.22h1.393c0.226,0,0.425,0.044,0.594,0.135
		c0.17,0.09,0.322,0.294,0.458,0.611c0.135,0.317,0.344,0.662,0.627,1.035c0.283,0.373,0.663,0.724,1.138,1.051
		c0.476,0.328,1.053,0.606,1.731,0.832c0.678,0.225,1.481,0.34,2.409,0.34c0.792,0,1.544-0.091,2.257-0.273
		c0.713-0.18,1.342-0.441,1.885-0.779c0.542-0.341,0.972-0.747,1.289-1.223c0.316-0.476,0.476-1.007,0.476-1.595
		s-0.181-1.091-0.545-1.511c-0.36-0.418-0.881-0.798-1.561-1.136c-0.678-0.34-1.511-0.649-2.493-0.934
		c-0.984-0.282-2.101-0.582-3.344-0.899c-1.132-0.293-2.094-0.65-2.885-1.068c-0.792-0.418-1.438-0.9-1.935-1.443
		c-0.498-0.543-0.854-1.141-1.069-1.798c-0.216-0.656-0.321-1.369-0.321-2.139c0-0.836,0.17-1.651,0.509-2.442
		c0.339-0.792,0.843-1.494,1.509-2.105c0.667-0.611,1.505-1.101,2.512-1.475C485.425,167.34,486.607,167.153,487.965,167.153"/>
	<path fill="#E81E25" d="M518.986,188.196c0.249,0,0.463,0.09,0.644,0.272c0.182,0.182,0.271,0.396,0.271,0.644v1.221
		c0,0.25-0.09,0.464-0.271,0.646c-0.181,0.181-0.395,0.271-0.644,0.271h-13.713c-0.248,0-0.464-0.09-0.644-0.271
		c-0.181-0.181-0.271-0.396-0.271-0.646v-21.923c0-0.25,0.091-0.464,0.271-0.646c0.18-0.181,0.396-0.271,0.644-0.271h13.439
		c0.249,0,0.465,0.09,0.647,0.271c0.179,0.181,0.27,0.395,0.27,0.646v1.22c0,0.25-0.091,0.464-0.27,0.646
		c-0.183,0.182-0.398,0.271-0.647,0.271h-11.132v7.162h10.387c0.248,0,0.462,0.091,0.646,0.271c0.179,0.181,0.27,0.396,0.27,0.645
		v1.222c0,0.249-0.091,0.464-0.27,0.644c-0.184,0.182-0.397,0.271-0.646,0.271h-10.387v7.434H518.986z"/>
</g>
</svg>
